# 3ds Max Wavefront OBJ Exporter v0.99 - (c)2007 guruware
# File Created: 08.12.2023 23:31:52

mtllib face.mtl

#
# object ZBrush_defualt_group
#

v  0.2379 0.5825 0.7759
v  0.0051 0.7555 0.7616
v  0.2843 0.8658 0.7402
v  -0.0750 1.1816 0.8670
v  -0.1999 1.1827 0.8546
v  -0.1682 0.9603 0.8961
v  -0.1503 0.7401 0.7600
v  -0.4779 0.5983 0.7456
v  0.0983 0.9909 0.7421
v  0.3172 0.9445 0.8646
v  0.4323 1.2012 0.7966
v  0.1473 1.0078 0.8927
v  -0.4533 0.3656 0.8603
v  -0.5943 0.9133 0.7727
v  -0.5949 0.6014 0.7920
v  -0.1329 0.1879 0.8692
v  -0.2882 0.2117 0.8674
v  -0.3232 0.2820 0.8238
v  0.6061 0.8075 0.7731
v  0.5465 0.5400 0.8161
v  0.6196 0.7265 0.7661
v  0.3162 1.3019 0.7245
v  0.0810 1.4018 0.7365
v  0.3458 1.3292 0.7468
v  -0.0274 0.2906 0.9341
v  0.1326 0.3051 0.9276
v  0.0530 0.7581 0.9216
v  -0.4192 0.8659 0.8417
v  -0.2747 0.6219 0.8963
v  -0.3075 1.0396 0.8576
v  0.5681 0.5230 0.7476
v  0.4709 0.3785 0.7826
v  0.4411 0.5195 0.7633
v  -0.0443 0.2077 0.9426
v  0.0552 0.1741 0.9380
v  0.1939 0.2366 0.9269
v  -0.2657 1.3417 0.8042
v  -0.0906 1.3716 0.8156
v  -0.1817 1.4065 0.7756
v  -0.5743 0.5814 0.7260
v  -0.6210 0.8689 0.7025
v  -0.4501 1.1358 0.7121
v  0.4386 1.2607 0.7440
v  0.4447 1.2446 0.7247
v  0.1168 1.1349 0.8747
v  0.2979 1.3314 0.8003
v  0.0689 1.3711 0.8162
v  -0.4614 0.8505 0.7234
v  -0.3070 1.1809 0.7293
v  -0.1042 1.2745 0.7375
v  -0.3512 1.3304 0.7718
v  0.1903 0.2106 0.8562
v  -0.0570 0.2856 0.8471
v  -0.2434 0.4574 0.7980
v  0.4556 0.7715 0.7295
v  0.0364 1.2901 0.7379
v  0.6395 0.7760 0.7402
v  0.6055 0.9756 0.7462
v  0.4328 0.3831 0.8654
v  0.5048 1.0867 0.7912
v  0.4587 0.3385 0.8091
v  0.3803 0.2875 0.8750
v  0.3648 0.2639 0.8420
v  -0.4233 1.2176 0.7981
v  -0.4663 1.2278 0.7695
v  -0.5791 1.0704 0.7441
v  -0.0938 0.1768 0.9339
v  -0.0433 0.1552 0.8864
v  -0.0753 0.6682 0.9245
v  -0.6333 0.7408 0.7155
v  -0.4732 0.3424 0.8364
v  -0.4496 0.3496 0.7947
v  -0.4152 0.2946 0.8275
v  0.0513 0.1500 0.8983
v  0.0977 1.4137 0.7910
v  0.1754 1.4065 0.7762
v  0.6149 0.7880 0.6999
v  0.6313 0.7134 0.7286
v  0.5904 1.0202 0.7168
v  -0.6347 0.8559 0.7475
v  -0.5515 1.1034 0.7188
v  0.4295 1.2475 0.7819
v  -0.3217 0.2296 0.8829
v  -0.3107 0.2882 0.9042
v  0.0212 0.9912 0.9057
v  -0.0593 0.9122 0.9122
v  0.1617 0.7730 0.9099
v  0.2849 0.6677 0.8906
v  0.2540 0.3532 0.9075
v  0.4318 1.2168 0.7118
v  0.5979 0.7553 0.6990
v  0.2848 0.2819 0.8273
v  0.5525 1.0574 0.7045
v  0.5327 0.4177 0.7925
v  0.5899 0.5369 0.7748
v  -0.3220 1.3356 0.7342
v  -0.0882 1.4238 0.7618
v  -0.0902 1.3876 0.7319
v  0.1261 1.4099 0.7457
v  -0.6189 0.6017 0.7462
v  -0.5559 0.4489 0.7890
v  0.2022 0.1855 0.8881
v  -0.3718 1.2690 0.7231
v  -0.4480 1.2534 0.7328
v  0.0050 0.5042 0.7986
v  -0.6439 0.8251 0.7280
v  0.4899 0.3703 0.8349
v  0.2572 0.2222 0.9056
v  -0.5683 1.0426 0.7718
v  0.5580 1.0952 0.7291
# 110 vertices

vn -0.0744 -0.1542 -0.9852
vn -0.0059 -0.1122 -0.9937
vn -0.0779 -0.0769 -0.9940
vn -0.0428 0.2226 0.9740
vn -0.1504 0.2016 0.9678
vn -0.1512 0.1137 0.9819
vn 0.0819 -0.1640 -0.9831
vn 0.1694 -0.1247 -0.9776
vn -0.0133 -0.0367 -0.9992
vn 0.2525 0.0987 0.9625
vn 0.3621 0.2331 0.9025
vn 0.1476 0.1305 0.9804
vn -0.4661 -0.1369 0.8741
vn -0.5114 0.0960 0.8540
vn -0.6779 -0.0644 0.7323
vn -0.0300 -0.4650 -0.8848
vn -0.2720 -0.9173 -0.2910
vn 0.0111 -0.3907 -0.9205
vn 0.5652 0.0821 0.8209
vn 0.5094 -0.0212 0.8603
vn 0.7705 -0.0599 0.6346
vn 0.0800 0.2581 -0.9628
vn 0.0193 0.4804 -0.8768
vn 0.4794 0.8290 -0.2880
vn -0.0237 0.0587 0.9980
vn 0.0783 0.0387 0.9962
vn 0.0492 0.0499 0.9975
vn -0.3016 0.0750 0.9505
vn -0.2098 0.0509 0.9764
vn -0.2157 0.1556 0.9640
vn 0.4298 -0.3502 -0.8323
vn 0.1722 -0.4174 -0.8923
vn -0.1261 -0.1593 -0.9791
vn -0.0418 -0.0359 0.9985
vn 0.1009 -0.5062 0.8565
vn 0.1945 -0.1107 0.9746
vn -0.2513 0.4814 0.8397
vn -0.0396 0.5132 0.8574
vn -0.2587 0.9490 0.1801
vn -0.2003 -0.2943 -0.9345
vn -0.4909 0.1112 -0.8641
vn 0.0103 0.0519 -0.9986
vn 0.6970 0.7170 -0.0048
vn 0.5630 0.5258 -0.6376
vn 0.0995 0.2089 0.9729
vn 0.3430 0.5682 0.7480
vn 0.0368 0.3972 0.9170
vn 0.1181 -0.0656 -0.9908
vn 0.0716 -0.0119 -0.9974
vn 0.0293 -0.0357 -0.9989
vn -0.5229 0.7871 0.3273
vn 0.0546 -0.5232 -0.8505
vn 0.0017 -0.2194 -0.9756
vn 0.0835 -0.1892 -0.9784
vn -0.1627 -0.0857 -0.9829
vn -0.0250 -0.0605 -0.9979
vn 0.9970 0.0558 -0.0543
vn 0.9017 0.2223 0.3708
vn 0.3510 -0.0403 0.9355
vn 0.5022 0.2260 0.8347
vn 0.5172 -0.7665 -0.3807
vn 0.5202 -0.4928 0.6976
vn 0.4104 -0.8435 -0.3465
vn -0.3607 0.2801 0.8896
vn -0.6972 0.5234 0.4899
vn -0.9076 0.4084 0.0972
vn -0.2021 -0.6350 0.7456
vn -0.0833 -0.9284 -0.3622
vn -0.0735 0.0370 0.9966
vn -0.7063 -0.1351 -0.6949
vn -0.7638 -0.6008 0.2359
vn -0.2823 -0.5120 -0.8113
vn -0.4575 -0.7841 -0.4193
vn 0.0945 -0.9885 -0.1182
vn 0.1092 0.8377 0.5351
vn 0.2902 0.9148 0.2810
vn 0.5832 0.0635 -0.8099
vn 0.9086 -0.2124 -0.3596
vn 0.8110 0.2810 -0.5132
vn -0.8643 0.1419 0.4825
vn -0.5871 0.3951 -0.7065
vn 0.5616 0.5085 0.6527
vn -0.4983 -0.7039 0.5062
vn -0.2660 -0.1125 0.9574
vn 0.0144 0.1344 0.9908
vn -0.0587 0.0916 0.9941
vn 0.1493 0.0592 0.9870
vn 0.2283 0.0488 0.9724
vn 0.2010 0.0243 0.9793
vn 0.0715 0.1635 -0.9840
vn 0.1459 -0.1508 -0.9777
vn -0.0488 -0.3201 -0.9461
vn 0.3071 0.2075 -0.9288
vn 0.8137 -0.5461 -0.1991
vn 0.9426 -0.2959 0.1548
vn -0.2998 0.6543 -0.6943
vn -0.0971 0.9878 -0.1215
vn -0.0468 0.3384 -0.9398
vn 0.1389 0.8054 -0.5762
vn -0.9245 -0.2956 -0.2407
vn -0.8536 -0.5047 -0.1293
vn 0.2985 -0.9544 -0.0088
vn -0.0603 0.1498 -0.9869
vn -0.5842 0.6178 -0.5264
vn -0.0015 -0.1827 -0.9832
vn -0.9947 0.0240 -0.1002
vn 0.7099 -0.4687 0.5257
vn 0.4402 -0.5471 0.7120
vn -0.5886 0.2184 0.7784
vn 0.8401 0.5338 -0.0967
# 110 vertex normals

vt 0.0000 0.0000 0.0000
# 1 texture coords

o ZBrush_defualt_group
g ZBrush_defualt_group
usemtl face_SubTool_1_1751427_defaultMat
s 1
f 1/1/1 2/1/2 3/1/3 
f 4/1/4 5/1/5 6/1/6 
f 7/1/7 8/1/8 9/1/9 
f 10/1/10 11/1/11 12/1/12 
f 13/1/13 14/1/14 15/1/15 
f 16/1/16 17/1/17 18/1/18 
f 19/1/19 20/1/20 21/1/21 
f 22/1/22 23/1/23 24/1/24 
f 25/1/25 26/1/26 27/1/27 
f 28/1/28 29/1/29 30/1/30 
f 31/1/31 32/1/32 33/1/33 
f 34/1/34 35/1/35 36/1/36 
f 37/1/37 38/1/38 39/1/39 
f 40/1/40 41/1/41 42/1/42 
f 43/1/43 44/1/44 24/1/24 
f 45/1/45 46/1/46 47/1/47 
f 48/1/48 49/1/49 50/1/50 
f 39/1/39 51/1/51 37/1/37 
f 52/1/52 53/1/53 1/1/1 
f 18/1/18 54/1/54 16/1/16 
f 22/1/22 55/1/55 56/1/56 
f 19/1/19 57/1/57 58/1/58 
f 59/1/59 60/1/60 10/1/10 
f 61/1/61 62/1/62 63/1/63 
f 64/1/64 65/1/65 66/1/66 
f 30/1/30 64/1/64 28/1/28 
f 67/1/67 17/1/17 68/1/68 
f 6/1/6 29/1/29 69/1/69 
f 70/1/70 41/1/41 40/1/40 
f 71/1/71 72/1/72 73/1/73 
f 67/1/67 74/1/74 35/1/35 
f 63/1/63 32/1/32 61/1/61 
f 47/1/47 75/1/75 39/1/39 
f 76/1/76 47/1/47 46/1/46 
f 8/1/8 50/1/50 9/1/9 
f 56/1/56 55/1/55 3/1/3 
f 77/1/77 78/1/78 31/1/31 
f 77/1/77 79/1/79 78/1/78 
f 14/1/14 80/1/80 15/1/15 
f 66/1/66 81/1/81 41/1/41 
f 58/1/58 82/1/82 60/1/60 
f 46/1/46 12/1/12 11/1/11 
f 13/1/13 71/1/71 83/1/83 
f 84/1/84 83/1/83 67/1/67 
f 65/1/65 64/1/64 51/1/51 
f 41/1/41 81/1/81 42/1/42 
f 85/1/85 4/1/4 6/1/6 
f 86/1/86 6/1/6 69/1/69 
f 26/1/26 87/1/87 27/1/27 
f 88/1/88 89/1/89 59/1/59 
f 55/1/55 90/1/90 91/1/91 
f 33/1/33 92/1/92 1/1/1 
f 93/1/93 91/1/91 90/1/90 
f 93/1/93 44/1/44 43/1/43 
f 94/1/94 61/1/61 32/1/32 
f 20/1/20 95/1/95 21/1/21 
f 96/1/96 97/1/97 98/1/98 
f 23/1/23 97/1/97 99/1/99 
f 100/1/100 72/1/72 101/1/101 
f 100/1/100 15/1/15 80/1/80 
f 16/1/16 53/1/53 52/1/52 
f 102/1/102 74/1/74 52/1/52 
f 103/1/103 96/1/96 98/1/98 
f 103/1/103 104/1/104 96/1/96 
f 72/1/72 100/1/100 40/1/40 
f 54/1/54 18/1/18 8/1/8 
f 63/1/63 62/1/62 102/1/102 
f 52/1/52 63/1/63 102/1/102 
f 5/1/5 64/1/64 6/1/6 
f 37/1/37 51/1/51 64/1/64 
f 46/1/46 82/1/82 24/1/24 
f 82/1/82 46/1/46 11/1/11 
f 105/1/105 2/1/2 1/1/1 
f 7/1/7 54/1/54 8/1/8 
f 41/1/41 106/1/106 66/1/66 
f 41/1/41 70/1/70 106/1/106 
f 12/1/12 27/1/27 87/1/87 
f 85/1/85 45/1/45 4/1/4 
f 95/1/95 20/1/20 107/1/107 
f 107/1/107 59/1/59 62/1/62 
f 24/1/24 23/1/23 99/1/99 
f 46/1/46 24/1/24 76/1/76 
f 35/1/35 102/1/102 108/1/108 
f 35/1/35 74/1/74 102/1/102 
f 15/1/15 71/1/71 13/1/13 
f 15/1/15 100/1/100 101/1/101 
f 59/1/59 89/1/89 108/1/108 
f 35/1/35 108/1/108 36/1/36 
f 64/1/64 66/1/66 109/1/109 
f 80/1/80 109/1/109 66/1/66 
f 40/1/40 8/1/8 18/1/18 
f 8/1/8 48/1/48 50/1/50 
f 83/1/83 84/1/84 13/1/13 
f 13/1/13 29/1/29 28/1/28 
f 34/1/34 67/1/67 35/1/35 
f 84/1/84 67/1/67 34/1/34 
f 33/1/33 32/1/32 92/1/92 
f 63/1/63 92/1/92 32/1/32 
f 98/1/98 50/1/50 103/1/103 
f 98/1/98 22/1/22 56/1/56 
f 19/1/19 58/1/58 60/1/60 
f 19/1/19 60/1/60 59/1/59 
f 67/1/67 83/1/83 17/1/17 
f 73/1/73 83/1/83 71/1/71 
f 96/1/96 104/1/104 51/1/51 
f 51/1/51 39/1/39 96/1/96 
f 79/1/79 110/1/110 58/1/58 
f 79/1/79 58/1/58 57/1/57 
f 82/1/82 58/1/58 110/1/110 
f 43/1/43 24/1/24 82/1/82 
f 37/1/37 4/1/4 38/1/38 
f 38/1/38 4/1/4 45/1/45 
f 87/1/87 10/1/10 12/1/12 
f 10/1/10 88/1/88 59/1/59 
f 65/1/65 104/1/104 66/1/66 
f 65/1/65 51/1/51 104/1/104 
f 24/1/24 90/1/90 22/1/22 
f 90/1/90 55/1/55 22/1/22 
f 2/1/2 9/1/9 3/1/3 
f 3/1/3 9/1/9 56/1/56 
f 109/1/109 28/1/28 64/1/64 
f 14/1/14 13/1/13 28/1/28 
f 2/1/2 105/1/105 54/1/54 
f 16/1/16 54/1/54 53/1/53 
f 107/1/107 94/1/94 95/1/95 
f 95/1/95 31/1/31 78/1/78 
f 99/1/99 97/1/97 75/1/75 
f 76/1/76 24/1/24 99/1/99 
f 91/1/91 33/1/33 55/1/55 
f 91/1/91 31/1/31 33/1/33 
f 13/1/13 84/1/84 29/1/29 
f 29/1/29 84/1/84 69/1/69 
f 12/1/12 45/1/45 85/1/85 
f 12/1/12 46/1/46 45/1/45 
f 27/1/27 69/1/69 25/1/25 
f 25/1/25 69/1/69 84/1/84 
f 72/1/72 71/1/71 101/1/101 
f 15/1/15 101/1/101 71/1/71 
f 68/1/68 52/1/52 74/1/74 
f 74/1/74 67/1/67 68/1/68 
f 97/1/97 39/1/39 75/1/75 
f 39/1/39 97/1/97 96/1/96 
f 57/1/57 78/1/78 79/1/79 
f 21/1/21 95/1/95 78/1/78 
f 27/1/27 86/1/86 69/1/69 
f 27/1/27 12/1/12 85/1/85 
f 59/1/59 20/1/20 19/1/19 
f 59/1/59 107/1/107 20/1/20 
f 94/1/94 107/1/107 61/1/61 
f 107/1/107 62/1/62 61/1/61 
f 105/1/105 1/1/1 53/1/53 
f 105/1/105 53/1/53 54/1/54 
f 103/1/103 42/1/42 81/1/81 
f 49/1/49 48/1/48 42/1/42 
f 91/1/91 93/1/93 79/1/79 
f 79/1/79 93/1/93 110/1/110 
f 66/1/66 104/1/104 81/1/81 
f 81/1/81 104/1/104 103/1/103 
f 100/1/100 70/1/70 40/1/40 
f 106/1/106 70/1/70 100/1/100 
f 89/1/89 87/1/87 26/1/26 
f 26/1/26 25/1/25 36/1/36 
f 56/1/56 9/1/9 50/1/50 
f 56/1/56 50/1/50 98/1/98 
f 1/1/1 55/1/55 33/1/33 
f 55/1/55 1/1/1 3/1/3 
f 38/1/38 47/1/47 39/1/39 
f 45/1/45 47/1/47 38/1/38 
f 68/1/68 17/1/17 16/1/16 
f 68/1/68 16/1/16 52/1/52 
f 6/1/6 64/1/64 30/1/30 
f 6/1/6 30/1/30 29/1/29 
f 100/1/100 80/1/80 106/1/106 
f 66/1/66 106/1/106 80/1/80 
f 88/1/88 10/1/10 87/1/87 
f 89/1/89 88/1/88 87/1/87 
f 28/1/28 109/1/109 14/1/14 
f 109/1/109 80/1/80 14/1/14 
f 98/1/98 23/1/23 22/1/22 
f 97/1/97 23/1/23 98/1/98 
f 84/1/84 34/1/34 25/1/25 
f 34/1/34 36/1/36 25/1/25 
f 17/1/17 83/1/83 73/1/73 
f 18/1/18 17/1/17 73/1/73 
f 8/1/8 40/1/40 48/1/48 
f 42/1/42 48/1/48 40/1/40 
f 7/1/7 9/1/9 2/1/2 
f 54/1/54 7/1/7 2/1/2 
f 4/1/4 37/1/37 5/1/5 
f 64/1/64 5/1/5 37/1/37 
f 18/1/18 73/1/73 72/1/72 
f 18/1/18 72/1/72 40/1/40 
f 31/1/31 95/1/95 94/1/94 
f 32/1/32 31/1/31 94/1/94 
f 44/1/44 90/1/90 24/1/24 
f 90/1/90 44/1/44 93/1/93 
f 108/1/108 62/1/62 59/1/59 
f 108/1/108 102/1/102 62/1/62 
f 89/1/89 26/1/26 36/1/36 
f 36/1/36 108/1/108 89/1/89 
f 49/1/49 103/1/103 50/1/50 
f 103/1/103 49/1/49 42/1/42 
f 43/1/43 110/1/110 93/1/93 
f 82/1/82 110/1/110 43/1/43 
f 31/1/31 91/1/91 77/1/77 
f 79/1/79 77/1/77 91/1/91 
f 60/1/60 82/1/82 11/1/11 
f 11/1/11 10/1/10 60/1/60 
f 85/1/85 6/1/6 86/1/86 
f 27/1/27 85/1/85 86/1/86 
f 99/1/99 75/1/75 76/1/76 
f 75/1/75 47/1/47 76/1/76 
f 92/1/92 52/1/52 1/1/1 
f 92/1/92 63/1/63 52/1/52 
f 78/1/78 57/1/57 21/1/21 
f 57/1/57 19/1/19 21/1/21 
# 0 polygons - 216 triangles

