# 3ds Max Wavefront OBJ Exporter v0.99 - (c)2007 guruware
# File Created: 14.12.2023 00:40:52

mtllib map.mtl

#
# object Box001
#

v  -59.4713 -4.0912 40.1138
v  60.2160 -2.0696 40.1138
v  -59.4713 -2.0696 40.1138
v  49.6350 -3.5163 -899.5386
v  -49.9557 -2.4837 -899.5386
v  49.6350 -2.4837 -899.5386
v  59.5206 -3.6799 -440.0001
v  60.2160 -4.0912 40.1138
v  -59.5206 -3.6799 -440.0001
v  -59.5206 -2.0790 -440.0001
v  59.5206 -2.0790 -440.0001
v  30.4619 24.0071 -669.8300
v  30.0609 23.9176 -489.0706
v  -30.1164 24.0071 -669.8300
v  -30.1164 25.2814 -669.8300
v  -30.4552 25.3710 -489.0706
v  30.4619 25.2814 -669.8300
v  30.0609 25.3710 -489.0706
v  -30.4552 23.9176 -489.0706
v  -50.5700 -3.5544 -749.8037
v  -49.9557 -3.5163 -899.5386
v  49.3458 -3.5544 -749.8037
v  19.4924 63.9722 -739.7866
v  19.9380 63.9271 -680.2083
v  -19.7907 63.9722 -739.7866
v  49.3458 -2.4456 -749.8037
v  -50.5700 -2.4456 -749.8037
v  -19.7907 65.3164 -739.7866
v  -20.2363 65.3615 -680.2083
v  19.4924 65.3164 -739.7866
v  19.9380 65.3615 -680.2083
v  -20.2363 63.9271 -680.2083
# 32 vertices

vn -0.5767 -0.5806 0.5747
vn 0.5785 0.5772 0.5763
vn -0.5772 0.5775 0.5774
vn 0.5790 -0.5762 -0.5769
vn -0.5743 0.5769 -0.5808
vn 0.5790 0.5762 -0.5769
vn 0.7085 -0.7056 -0.0097
vn 0.5780 -0.5803 0.5737
vn -0.7094 -0.7047 -0.0070
vn -0.7072 0.7070 0.0000
vn 0.7063 0.7079 -0.0027
vn 0.7097 -0.7045 -0.0002
vn 0.7045 -0.7097 -0.0002
vn -0.7073 -0.7068 -0.0075
vn -0.7073 0.7068 -0.0075
vn -0.7068 0.7073 -0.0075
vn 0.7097 0.7045 -0.0002
vn 0.7045 0.7097 -0.0002
vn -0.7068 -0.7073 -0.0075
vn -0.7087 -0.7054 -0.0094
vn -0.5743 -0.5769 -0.5808
vn 0.7053 -0.7089 0.0013
vn 0.7047 -0.7092 -0.0196
vn 0.7092 -0.7048 -0.0196
vn -0.7047 -0.7092 -0.0196
vn 0.7053 0.7089 0.0013
vn -0.7087 0.7054 -0.0094
vn -0.7047 0.7092 -0.0196
vn -0.7091 0.7048 -0.0196
vn 0.7047 0.7092 -0.0196
vn 0.7092 0.7048 -0.0196
vn -0.7092 -0.7048 -0.0196
# 32 vertex normals

vt 0.0000 0.0000 0.0000
vt 1.0000 1.0000 0.0000
vt 0.0000 1.0000 0.0000
vt 0.0000 0.4254 0.0000
vt 1.0000 0.4254 0.0000
vt 0.4254 1.0000 0.0000
vt 0.4254 0.0000 0.0000
vt 0.5746 0.0000 0.0000
vt 1.0000 0.0000 0.0000
vt 0.5746 1.0000 0.0000
vt 0.0000 0.7556 0.0000
vt 0.0000 0.5746 0.0000
vt 1.0000 0.7556 0.0000
vt 0.7556 1.0000 0.0000
vt 0.7556 0.0000 0.0000
vt 0.2444 0.0000 0.0000
vt 0.2444 1.0000 0.0000
vt 1.0000 0.9230 0.0000
vt 0.0000 0.9230 0.0000
vt 0.0000 0.8960 0.0000
vt 0.0000 0.8190 0.0000
vt 1.0000 0.8960 0.0000
vt 0.9230 0.0000 0.0000
vt 0.9230 1.0000 0.0000
vt 0.8960 1.0000 0.0000
vt 0.8190 1.0000 0.0000
vt 0.8960 0.0000 0.0000
vt 0.0770 1.0000 0.0000
vt 0.0770 0.0000 0.0000
vt 0.1040 0.0000 0.0000
vt 0.1810 0.0000 0.0000
vt 0.1040 1.0000 0.0000
vt 1.0000 0.5746 0.0000
vt 1.0000 0.8190 0.0000
vt 0.8190 0.0000 0.0000
vt 0.1810 1.0000 0.0000
# 36 texture coords

o Box001
g Box001
usemtl wire_113135006
s 8
f 1/1/1 2/2/2 3/3/3 
s 32
f 4/1/4 5/2/5 6/3/6 
s 2
f 7/4/7 8/1/8 9/5/9 
s 4
f 10/4/10 3/1/3 11/5/11 
s 16
f 11/6/11 2/3/2 7/7/7 
s 64
f 9/8/9 1/9/1 10/10/10 
s 2
f 12/11/12 13/12/13 14/13/14 
s 4
f 15/11/15 16/12/16 17/13/17 
s 16
f 17/14/17 18/10/18 12/15/12 
s 64
f 14/16/14 19/7/19 15/17/15 
s 2
f 20/18/20 21/2/21 22/19/22 
f 23/20/23 24/21/24 25/22/25 
s 4
f 26/18/26 6/2/6 27/19/27 
f 28/20/28 29/21/29 30/22/30 
s 16
f 22/23/22 4/9/4 26/24/26 
f 30/25/30 31/26/31 23/27/23 
s 64
f 27/28/27 5/3/5 20/29/20 
f 25/30/25 32/31/32 28/32/28 
s 8
f 1/1/1 8/9/8 2/2/2 
s 32
f 4/1/4 21/9/21 5/2/5 
s 2
f 8/1/8 1/9/1 9/5/9 
s 4
f 3/1/3 2/9/2 11/5/11 
s 16
f 2/3/2 8/1/8 7/7/7 
s 64
f 1/9/1 3/2/3 10/10/10 
s 2
f 13/12/13 19/33/19 14/13/14 
s 4
f 16/12/16 18/33/18 17/13/17 
s 16
f 18/10/18 13/8/13 12/15/12 
s 64
f 19/7/19 16/6/16 15/17/15 
s 2
f 21/2/21 4/3/4 22/19/22 
f 24/21/24 32/34/32 25/22/25 
s 4
f 6/2/6 5/3/5 27/19/27 
f 29/21/29 31/34/31 30/22/30 
s 16
f 4/9/4 6/2/6 26/24/26 
f 31/26/31 24/35/24 23/27/23 
s 64
f 5/3/5 21/1/21 20/29/20 
f 32/31/32 29/36/29 28/32/28 
# 0 polygons - 36 triangles

