# 3ds Max Wavefront OBJ Exporter v0.99 - (c)2007 guruware
# File Created: 29.11.2023 13:35:24

mtllib right_leg.mtl

#
# object ZBrush_defualt_group001
#

v  0.1941 -2.4040 0.0961
v  0.2341 -2.4182 0.2061
v  0.1865 -2.4173 0.0323
v  0.5326 -2.3265 -0.2358
v  0.5681 -2.2901 -0.1589
v  0.5185 -2.1507 -0.1734
v  0.4818 -2.2958 0.3057
v  0.4836 -2.2595 0.2510
v  0.5307 -2.2690 0.2347
v  0.2637 -1.9922 -0.2059
v  0.2803 -1.9459 -0.2029
v  0.2462 -1.9768 -0.1579
v  0.5155 -2.4291 -0.1731
v  0.2792 -2.4303 -0.2814
v  0.2174 -2.4307 0.0466
v  0.3743 -2.3099 0.3093
v  0.4061 -2.2664 0.2675
v  0.4367 -2.2941 0.3110
v  0.4051 -1.9357 -0.1390
v  0.4373 -1.9323 -0.0924
v  0.3587 -1.9231 -0.0772
v  0.5237 -2.1238 -0.0477
v  0.4691 -2.1248 0.0129
v  0.4358 -2.0743 0.0130
v  0.2505 -2.0288 -0.0767
v  0.2139 -2.2626 -0.1087
v  0.2167 -2.2460 -0.1575
v  0.4077 -1.9648 0.0484
v  0.3566 -1.9296 0.0614
v  0.4562 -1.9475 0.0311
v  0.4058 -2.4267 -0.3081
v  0.4993 -2.4309 -0.2496
v  0.4211 -2.3080 -0.2955
v  0.3741 -2.0740 -0.2668
v  0.3419 -2.0902 -0.2636
v  0.6404 -2.3854 0.0773
v  0.6466 -2.4014 0.1415
v  0.6307 -2.3560 0.1092
v  0.4517 -2.4290 0.2974
v  0.5928 -2.4310 0.2509
v  0.4693 -2.2477 -0.2692
v  0.5337 -2.0088 -0.1582
v  0.5424 -1.9779 -0.1236
v  0.5117 -1.9741 -0.2049
v  0.2965 -2.1076 0.0128
v  0.2441 -2.2009 -0.0167
v  0.2583 -2.1246 -0.0300
v  0.2839 -2.2926 0.2010
v  0.2976 -2.3445 0.2790
v  0.2386 -2.3038 0.1343
v  0.5660 -2.3418 0.2931
v  0.5773 -2.2958 0.2189
v  0.5968 -2.3717 0.2811
v  0.5148 -2.4265 0.3422
v  0.4198 -2.4252 0.3664
v  0.4875 -2.4160 0.3647
v  0.2330 -2.4302 -0.2047
v  0.1929 -2.4259 0.0163
v  0.2676 -2.0566 -0.2031
v  0.2266 -2.2299 -0.1903
v  0.2855 -2.0732 -0.2305
v  0.3068 -1.9309 -0.1892
v  0.2955 -1.9041 0.0029
v  0.2527 -1.9363 -0.1093
v  0.2522 -2.0412 -0.1566
v  0.4429 -2.1687 0.0612
v  0.3583 -2.1646 0.0681
v  0.3901 -2.1197 0.0388
v  0.2803 -2.2047 0.0572
v  0.6152 -2.3393 0.2062
v  0.5148 -2.2487 0.2037
v  0.5040 -2.3914 -0.2831
v  0.5422 -2.4193 -0.2484
v  0.4379 -2.4189 -0.3096
v  0.2282 -2.3082 -0.2212
v  0.2601 -2.2820 -0.2485
v  0.3885 -2.3239 -0.3000
v  0.3096 -2.2769 -0.2723
v  0.4858 -1.9734 -0.2328
v  0.4392 -2.0561 -0.2522
v  0.4862 -2.0069 -0.2343
v  0.4537 -1.9362 -0.1875
v  0.3584 -2.0284 0.0310
v  0.3121 -2.0129 0.0219
v  0.2945 -1.9298 0.0340
v  0.2646 -1.9310 -0.0125
v  0.2806 -1.9610 0.0173
v  0.2656 -2.4274 0.2479
v  0.3121 -2.4307 0.2817
v  0.2255 -2.4261 0.1557
v  0.3449 -2.3106 0.2904
v  0.5173 -2.0424 -0.0466
v  0.5303 -2.1208 -0.1261
v  0.5743 -2.2600 -0.0959
v  0.5600 -2.2153 -0.0486
v  0.5443 -2.1688 -0.0794
v  0.1844 -2.3888 -0.0786
v  0.1866 -2.4175 -0.0629
v  0.2175 -2.4180 -0.2234
v  0.1858 -2.3544 -0.0147
v  0.4815 -2.0274 -0.0076
v  0.4998 -1.9430 -0.1715
v  0.5305 -1.9473 -0.0919
v  0.4829 -1.9228 -0.0148
v  0.6259 -2.4165 -0.0816
v  0.5432 -2.3912 -0.2519
v  0.6020 -2.4171 -0.1609
v  0.5909 -2.3704 -0.1786
v  0.4060 -1.9616 -0.2594
v  0.4535 -1.9419 -0.2188
v  0.3225 -1.9377 -0.2208
v  0.2946 -1.9933 -0.2447
v  0.3548 -1.9765 -0.2671
v  0.3235 -1.9545 -0.2462
v  0.1833 -2.3876 0.0490
v  0.3515 -2.3854 0.3498
v  0.4369 -2.3849 0.3743
v  0.3077 -2.4175 0.3154
v  0.3402 -2.4260 0.3332
v  0.3725 -2.4185 -0.3172
v  0.2603 -2.3898 -0.2914
v  0.2939 -2.4260 -0.3015
v  0.2372 -2.3890 -0.2696
v  0.2080 -2.3885 -0.2080
v  0.6434 -2.4150 0.0928
v  0.6213 -2.4289 -0.0159
v  0.6349 -2.4249 0.1900
v  0.6404 -2.4018 0.2074
v  0.6235 -2.4018 0.2539
v  0.5303 -2.0747 -0.0938
v  0.5322 -1.9620 -0.0441
v  0.4878 -2.3857 0.3659
v  0.5512 -2.4021 0.3351
v  0.4203 -2.3536 0.3588
v  0.4395 -1.9749 -0.2587
v  0.3727 -2.0091 -0.2727
v  0.3267 -2.1856 0.0781
v  0.4835 -2.2028 0.0936
v  0.4519 -2.2352 0.2036
v  0.3432 -2.2616 0.2193
v  0.5145 -2.2028 0.0604
v  0.5294 -2.1549 -0.0329
v  0.5682 -2.2457 0.0282
v  0.2389 -2.1695 -0.0621
v  0.2352 -2.2470 0.0148
v  0.6146 -2.4252 0.2516
v  0.3059 -2.3883 -0.3112
v  0.3269 -2.1059 0.0293
v  0.3584 -2.0739 0.0288
v  0.4816 -1.9497 -0.2150
v  0.4555 -2.3902 -0.3071
v  0.6265 -2.3863 -0.0821
v  0.2655 -1.9414 -0.1710
v  0.2413 -1.9628 -0.0923
v  0.2873 -1.9182 0.0189
v  0.4211 -1.9051 0.0159
v  0.3252 -1.9034 0.0394
v  0.3260 -1.8959 0.0006
v  0.4537 -1.9174 -0.0308
v  0.5109 -1.9480 -0.0146
v  0.4145 -1.9104 0.0388
v  0.4861 -1.9477 0.0106
v  0.5144 -1.9789 -0.0172
v  0.2758 -2.0291 -0.0156
v  0.2622 -1.9625 -0.0104
v  0.5765 -2.4307 -0.1567
v  0.4700 -2.3539 0.3564
v  0.5290 -2.3120 0.2973
v  0.2039 -2.3537 0.1112
v  0.2413 -2.3723 0.2231
v  0.5911 -2.2903 0.1519
v  0.5954 -2.2901 0.0139
v  0.2018 -2.3723 -0.1748
v  0.2036 -2.3094 -0.0930
v  0.2060 -2.3219 0.0634
v  0.2513 -2.4264 -0.2729
v  0.5012 -2.4310 0.3275
v  0.4041 -2.4311 0.3425
v  0.2951 -2.2383 0.1231
v  0.3423 -2.2228 0.1401
v  0.4048 -2.3896 -0.3183
v  0.5416 -1.9947 -0.0757
v  0.5248 -1.9551 -0.1546
v  0.5462 -2.2323 0.0754
v  0.2624 -2.4057 0.2675
v  0.2120 -2.4258 -0.1721
v  0.4392 -2.2453 -0.2823
v  0.4819 -2.0878 -0.2164
v  0.4067 -2.0732 -0.2623
v  0.6166 -2.4254 -0.0963
v  0.5682 -2.4268 -0.2038
v  0.5124 -2.0883 -0.1727
v  0.6033 -2.3370 -0.1131
# 193 vertices

vn -0.9345 -0.2379 0.2648
vn -0.8309 -0.4447 0.3344
vn -0.8943 -0.4402 0.0806
vn 0.7281 0.2729 -0.6288
vn 0.8657 0.3202 -0.3847
vn 0.8742 0.1734 -0.4536
vn 0.2203 0.7286 0.6485
vn 0.1841 0.8613 0.4735
vn 0.4588 0.7897 0.4072
vn -0.8645 0.1163 -0.4889
vn -0.6096 0.6308 -0.4801
vn -0.9615 0.1397 -0.2366
vn 0.0044 -1.0000 -0.0038
vn -0.1161 -0.9748 -0.1906
vn -0.1313 -0.9910 0.0253
vn -0.3455 0.6502 0.6767
vn -0.1541 0.8454 0.5114
vn -0.0189 0.7513 0.6597
vn 0.0425 0.9974 -0.0590
vn -0.1532 0.9772 -0.1467
vn 0.0873 0.9769 -0.1952
vn 0.8764 0.2611 0.4047
vn 0.5192 0.5145 0.6824
vn 0.3645 0.2052 0.9083
vn -0.9830 -0.0105 0.1834
vn -0.9728 0.2251 0.0551
vn -0.9784 0.1678 -0.1207
vn 0.2576 -0.1570 0.9534
vn -0.0775 0.1733 0.9818
vn 0.4850 0.0704 0.8717
vn 0.0679 -0.8573 -0.5104
vn 0.1313 -0.9704 -0.2025
vn 0.1824 0.1892 -0.9648
vn 0.0192 -0.0005 -0.9998
vn -0.3056 0.0481 -0.9509
vn 0.9759 0.2049 -0.0746
vn 0.9965 -0.0563 0.0617
vn 0.9107 0.4130 0.0095
vn -0.0034 -0.9997 -0.0247
vn 0.1395 -0.9845 0.1065
vn 0.5427 0.2172 -0.8113
vn 0.9426 -0.0823 -0.3236
vn 0.9780 0.1706 -0.1197
vn 0.8142 0.2532 -0.5225
vn -0.6580 0.1930 0.7279
vn -0.9084 0.2959 0.2954
vn -0.8617 0.1558 0.4829
vn -0.6493 0.6105 0.4535
vn -0.6503 0.4624 0.6028
vn -0.7853 0.5100 0.3511
vn 0.5967 0.5068 0.6222
vn 0.6588 0.6726 0.3369
vn 0.7523 0.3249 0.5732
vn 0.3101 -0.7966 0.5189
vn -0.1082 -0.6410 0.7599
vn 0.2481 -0.4530 0.8563
vn -0.2454 -0.9652 -0.0903
vn -0.5247 -0.8511 0.0166
vn -0.8896 0.0402 -0.4549
vn -0.9189 0.1827 -0.3496
vn -0.6772 0.0432 -0.7345
vn -0.1534 0.9656 -0.2100
vn -0.4451 0.8918 0.0809
vn -0.7128 0.6927 -0.1097
vn -0.9849 0.0225 -0.1717
vn 0.2100 0.6817 0.7008
vn -0.1004 0.5253 0.8450
vn 0.1266 0.4259 0.8959
vn -0.6895 0.5124 0.5118
vn 0.8450 0.4788 0.2384
vn 0.3731 0.8733 0.3132
vn 0.5039 -0.0849 -0.8596
vn 0.5773 -0.5597 -0.5945
vn 0.2758 -0.5389 -0.7960
vn -0.8321 0.1898 -0.5211
vn -0.6020 0.2151 -0.7690
vn -0.0637 0.2354 -0.9698
vn -0.3427 0.1997 -0.9180
vn 0.5665 0.3028 -0.7664
vn 0.4104 -0.1793 -0.8941
vn 0.6085 -0.0613 -0.7912
vn 0.0977 0.9873 -0.1256
vn -0.2332 -0.1133 0.9658
vn -0.4406 -0.1403 0.8867
vn -0.5996 0.1228 0.7909
vn -0.8634 0.4205 0.2790
vn -0.7146 -0.1252 0.6882
vn -0.4575 -0.8439 0.2802
vn -0.1070 -0.9892 0.1004
vn -0.5229 -0.8386 0.1525
vn -0.4749 0.6170 0.6275
vn 0.8156 -0.1532 0.5580
vn 0.9721 0.1794 -0.1514
vn 0.9267 0.3447 -0.1496
vn 0.9199 0.3909 0.0305
vn 0.9363 0.3401 0.0872
vn -0.9948 0.0120 -0.1011
vn -0.8598 -0.5075 -0.0559
vn -0.7992 -0.5142 -0.3113
vn -0.9813 0.1915 0.0207
vn 0.5483 -0.2629 0.7939
vn 0.4092 0.8833 -0.2288
vn 0.7357 0.6773 -0.0033
vn 0.4718 0.8532 0.2221
vn 0.9262 -0.3327 -0.1773
vn 0.7217 0.0783 -0.6878
vn 0.8209 -0.4705 -0.3237
vn 0.8698 0.1847 -0.4576
vn 0.0959 0.6018 -0.7929
vn 0.1864 0.8859 -0.4248
vn -0.1435 0.9023 -0.4064
vn -0.5997 0.1450 -0.7870
vn -0.1668 0.3181 -0.9333
vn -0.3113 0.6083 -0.7301
vn -0.9930 0.0490 0.1072
vn -0.4716 0.1593 0.8673
vn -0.0426 0.1309 0.9905
vn -0.6448 -0.3748 0.6662
vn -0.3538 -0.7090 0.6101
vn -0.0495 -0.4318 -0.9006
vn -0.5376 0.0401 -0.8422
vn -0.2265 -0.5842 -0.7793
vn -0.7927 0.0199 -0.6092
vn -0.9534 -0.0220 -0.3009
vn 0.9242 -0.3766 -0.0629
vn 0.4367 -0.8987 -0.0395
vn 0.6664 -0.7405 0.0869
vn 0.9740 -0.0043 0.2264
vn 0.8786 -0.0181 0.4773
vn 0.9613 -0.2078 0.1808
vn 0.9014 0.2832 0.3274
vn 0.3331 0.2106 0.9191
vn 0.6053 -0.1162 0.7875
vn -0.1485 0.5034 0.8512
vn 0.3379 0.2974 -0.8930
vn -0.0124 0.0298 -0.9995
vn -0.3575 0.8089 0.4668
vn 0.2487 0.8926 0.3761
vn 0.0510 0.9269 0.3719
vn -0.3977 0.7907 0.4654
vn 0.5521 0.7451 0.3742
vn 0.8203 0.4559 0.3454
vn 0.8087 0.5711 0.1408
vn -0.9490 0.1469 0.2791
vn -0.9243 0.3509 0.1504
vn 0.6036 -0.7102 0.3623
vn -0.2913 -0.0845 -0.9529
vn -0.2799 0.2572 0.9249
vn 0.0137 0.0623 0.9980
vn 0.4448 0.7492 -0.4907
vn 0.3826 0.0401 -0.9230
vn 0.9698 0.1500 -0.1921
vn -0.6611 0.6894 -0.2960
vn -0.9877 0.1443 0.0607
vn -0.7142 0.5113 0.4780
vn 0.2267 0.9682 0.1059
vn -0.2424 0.7581 0.6054
vn -0.1105 0.9882 -0.1061
vn 0.1570 0.9751 -0.1564
vn 0.7577 0.4373 0.4844
vn 0.2933 0.6744 0.6776
vn 0.6211 0.2384 0.7466
vn 0.7431 -0.1400 0.6544
vn -0.8294 -0.0733 0.5538
vn -0.9054 -0.0435 0.4223
vn 0.1468 -0.9861 -0.0771
vn 0.2189 0.5117 0.8308
vn 0.4533 0.6258 0.6348
vn -0.9176 0.2738 0.2881
vn -0.8539 0.2725 0.4435
vn 0.7695 0.6262 0.1252
vn 0.8967 0.4423 -0.0149
vn -0.9790 0.0870 -0.1843
vn -0.9787 0.1796 -0.0997
vn -0.8984 0.4001 0.1813
vn -0.5371 -0.6877 -0.4884
vn 0.0436 -0.9927 0.1122
vn -0.0414 -0.9874 0.1529
vn -0.5307 0.7216 0.4447
vn -0.3111 0.8178 0.4841
vn 0.0801 0.0772 -0.9938
vn 0.9795 -0.0333 0.1986
vn 0.7616 0.5899 -0.2685
vn 0.6526 0.7427 0.1498
vn -0.7971 -0.1245 0.5909
vn -0.6060 -0.7874 -0.1135
vn 0.3194 0.1575 -0.9344
vn 0.7103 -0.0204 -0.7036
vn 0.2978 0.0270 -0.9542
vn 0.6462 -0.7262 -0.2346
vn 0.4754 -0.8171 -0.3262
vn 0.9064 -0.0278 -0.4215
vn 0.9143 0.3345 -0.2282
# 193 vertex normals

vt 0.0000 0.0000 0.0000
# 1 texture coords

o ZBrush_defualt_group001
g ZBrush_defualt_group001
usemtl left_leg_SubTool_2_11512011_defaultMat
s 1
f 3/1/3 2/1/2 1/1/1 
f 6/1/6 5/1/5 4/1/4 
f 9/1/9 8/1/8 7/1/7 
f 12/1/12 11/1/11 10/1/10 
f 15/1/15 14/1/14 13/1/13 
f 18/1/18 17/1/17 16/1/16 
f 21/1/21 20/1/20 19/1/19 
f 24/1/24 23/1/23 22/1/22 
f 27/1/27 26/1/26 25/1/25 
f 30/1/30 29/1/29 28/1/28 
f 32/1/32 14/1/14 31/1/31 
f 35/1/35 34/1/34 33/1/33 
f 38/1/38 37/1/37 36/1/36 
f 13/1/13 40/1/40 39/1/39 
f 6/1/6 4/1/4 41/1/41 
f 44/1/44 43/1/43 42/1/42 
f 47/1/47 46/1/46 45/1/45 
f 50/1/50 49/1/49 48/1/48 
f 53/1/53 52/1/52 51/1/51 
f 56/1/56 55/1/55 54/1/54 
f 15/1/15 58/1/58 57/1/57 
f 61/1/61 60/1/60 59/1/59 
f 64/1/64 63/1/63 62/1/62 
f 65/1/65 60/1/60 25/1/25 
f 68/1/68 67/1/67 66/1/66 
f 46/1/46 69/1/69 45/1/45 
f 38/1/38 70/1/70 37/1/37 
f 9/1/9 71/1/71 8/1/8 
f 72/1/72 33/1/33 41/1/41 
f 32/1/32 74/1/74 73/1/73 
f 76/1/76 75/1/75 61/1/61 
f 78/1/78 35/1/35 77/1/77 
f 81/1/81 80/1/80 79/1/79 
f 20/1/20 82/1/82 19/1/19 
f 85/1/85 84/1/84 83/1/83 
f 87/1/87 85/1/85 86/1/86 
f 90/1/90 89/1/89 88/1/88 
f 49/1/49 91/1/91 48/1/48 
f 22/1/22 93/1/93 92/1/92 
f 96/1/96 95/1/95 94/1/94 
f 99/1/99 98/1/98 97/1/97 
f 98/1/98 100/1/100 97/1/97 
f 28/1/28 101/1/101 30/1/30 
f 104/1/104 103/1/103 102/1/102 
f 36/1/36 37/1/37 105/1/105 
f 108/1/108 107/1/107 106/1/106 
f 111/1/111 110/1/110 109/1/109 
f 114/1/114 113/1/113 112/1/112 
f 3/1/3 115/1/115 100/1/100 
f 48/1/48 46/1/46 50/1/50 
f 55/1/55 117/1/117 116/1/116 
f 119/1/119 116/1/116 118/1/118 
f 122/1/122 121/1/121 120/1/120 
f 99/1/99 124/1/124 123/1/123 
f 127/1/127 126/1/126 125/1/125 
f 129/1/129 128/1/128 70/1/70 
f 130/1/130 92/1/92 93/1/93 
f 131/1/131 103/1/103 104/1/104 
f 133/1/133 51/1/51 132/1/132 
f 18/1/18 16/1/16 134/1/134 
f 135/1/135 79/1/79 80/1/80 
f 136/1/136 34/1/34 35/1/35 
f 139/1/139 138/1/138 137/1/137 
f 48/1/48 91/1/91 140/1/140 
f 143/1/143 142/1/142 141/1/141 
f 23/1/23 141/1/141 142/1/142 
f 26/1/26 144/1/144 25/1/25 
f 145/1/145 46/1/46 26/1/26 
f 133/1/133 56/1/56 54/1/54 
f 146/1/146 128/1/128 129/1/129 
f 93/1/93 94/1/94 6/1/6 
f 42/1/42 81/1/81 44/1/44 
f 78/1/78 77/1/77 147/1/147 
f 76/1/76 123/1/123 75/1/75 
f 67/1/67 68/1/68 148/1/148 
f 24/1/24 149/1/149 68/1/68 
f 150/1/150 79/1/79 135/1/135 
f 82/1/82 104/1/104 102/1/102 
f 120/1/120 31/1/31 122/1/122 
f 73/1/73 74/1/74 151/1/151 
f 105/1/105 108/1/108 152/1/152 
f 5/1/5 6/1/6 94/1/94 
f 153/1/153 11/1/11 12/1/12 
f 65/1/65 25/1/25 154/1/154 
f 155/1/155 63/1/63 86/1/86 
f 158/1/158 157/1/157 156/1/156 
f 156/1/156 159/1/159 158/1/158 
f 104/1/104 161/1/161 160/1/160 
f 24/1/24 22/1/22 92/1/92 
f 101/1/101 163/1/163 162/1/162 
f 54/1/54 146/1/146 133/1/133 
f 126/1/126 127/1/127 40/1/40 
f 164/1/164 47/1/47 45/1/45 
f 165/1/165 154/1/154 25/1/25 
f 126/1/126 40/1/40 166/1/166 
f 108/1/108 105/1/105 107/1/107 
f 153/1/153 62/1/62 11/1/11 
f 110/1/110 111/1/111 62/1/62 
f 132/1/132 168/1/168 167/1/167 
f 117/1/117 55/1/55 56/1/56 
f 2/1/2 170/1/170 169/1/169 
f 88/1/88 119/1/119 118/1/118 
f 53/1/53 70/1/70 52/1/52 
f 172/1/172 143/1/143 171/1/171 
f 75/1/75 123/1/123 124/1/124 
f 174/1/174 27/1/27 173/1/173 
f 49/1/49 116/1/116 16/1/16 
f 134/1/134 16/1/16 116/1/116 
f 145/1/145 26/1/26 175/1/175 
f 50/1/50 169/1/169 170/1/170 
f 161/1/161 157/1/157 29/1/29 
f 83/1/83 29/1/29 85/1/85 
f 35/1/35 76/1/76 61/1/61 
f 59/1/59 10/1/10 61/1/61 
f 14/1/14 15/1/15 57/1/57 
f 123/1/123 176/1/176 99/1/99 
f 148/1/148 149/1/149 84/1/84 
f 68/1/68 149/1/149 148/1/148 
f 119/1/119 55/1/55 116/1/116 
f 55/1/55 178/1/178 177/1/177 
f 165/1/165 86/1/86 154/1/154 
f 63/1/63 64/1/64 86/1/86 
f 96/1/96 142/1/142 95/1/95 
f 95/1/95 142/1/142 143/1/143 
f 179/1/179 69/1/69 46/1/46 
f 180/1/180 137/1/137 179/1/179 
f 7/1/7 168/1/168 9/1/9 
f 7/1/7 167/1/167 168/1/168 
f 33/1/33 77/1/77 35/1/35 
f 74/1/74 181/1/181 151/1/151 
f 17/1/17 7/1/7 8/1/8 
f 137/1/137 180/1/180 139/1/139 
f 109/1/109 113/1/113 114/1/114 
f 136/1/136 135/1/135 80/1/80 
f 89/1/89 119/1/119 88/1/88 
f 178/1/178 55/1/55 119/1/119 
f 174/1/174 97/1/97 100/1/100 
f 26/1/26 100/1/100 175/1/175 
f 182/1/182 103/1/103 131/1/131 
f 42/1/42 43/1/43 130/1/130 
f 44/1/44 150/1/150 183/1/183 
f 44/1/44 183/1/183 43/1/43 
f 141/1/141 52/1/52 184/1/184 
f 171/1/171 184/1/184 52/1/52 
f 170/1/170 2/1/2 185/1/185 
f 185/1/185 116/1/116 49/1/49 
f 29/1/29 30/1/30 161/1/161 
f 160/1/160 161/1/161 162/1/162 
f 146/1/146 129/1/129 133/1/133 
f 51/1/51 133/1/133 53/1/53 
f 73/1/73 151/1/151 72/1/72 
f 73/1/73 106/1/106 107/1/107 
f 57/1/57 58/1/58 186/1/186 
f 100/1/100 98/1/98 3/1/3 
f 115/1/115 175/1/175 100/1/100 
f 169/1/169 1/1/1 2/1/2 
f 121/1/121 76/1/76 78/1/78 
f 76/1/76 35/1/35 78/1/78 
f 160/1/160 162/1/162 163/1/163 
f 163/1/163 182/1/182 131/1/131 
f 187/1/187 33/1/33 34/1/34 
f 187/1/187 189/1/189 188/1/188 
f 191/1/191 190/1/190 166/1/166 
f 14/1/14 32/1/32 13/1/13 
f 21/1/21 62/1/62 63/1/63 
f 21/1/21 158/1/158 159/1/159 
f 164/1/164 165/1/165 25/1/25 
f 85/1/85 87/1/87 84/1/84 
f 78/1/78 147/1/147 121/1/121 
f 147/1/147 120/1/120 121/1/121 
f 29/1/29 157/1/157 85/1/85 
f 157/1/157 63/1/63 155/1/155 
f 69/1/69 67/1/67 148/1/148 
f 67/1/67 137/1/137 138/1/138 
f 154/1/154 12/1/12 65/1/65 
f 12/1/12 10/1/10 59/1/59 
f 6/1/6 192/1/192 93/1/93 
f 93/1/93 192/1/192 130/1/130 
f 89/1/89 90/1/90 15/1/15 
f 39/1/39 15/1/15 13/1/13 
f 127/1/127 125/1/125 128/1/128 
f 128/1/128 37/1/37 70/1/70 
f 17/1/17 139/1/139 180/1/180 
f 91/1/91 17/1/17 140/1/140 
f 66/1/66 23/1/23 68/1/68 
f 23/1/23 24/1/24 68/1/68 
f 39/1/39 40/1/40 177/1/177 
f 146/1/146 54/1/54 40/1/40 
f 61/1/61 112/1/112 35/1/35 
f 35/1/35 112/1/112 113/1/113 
f 181/1/181 74/1/74 120/1/120 
f 120/1/120 147/1/147 181/1/181 
f 133/1/133 132/1/132 56/1/56 
f 132/1/132 117/1/117 56/1/56 
f 191/1/191 73/1/73 107/1/107 
f 191/1/191 107/1/107 105/1/105 
f 66/1/66 67/1/67 138/1/138 
f 52/1/52 141/1/141 71/1/71 
f 62/1/62 111/1/111 11/1/11 
f 112/1/112 11/1/11 114/1/114 
f 83/1/83 28/1/28 29/1/29 
f 149/1/149 101/1/101 28/1/28 
f 128/1/128 146/1/146 127/1/127 
f 127/1/127 146/1/146 40/1/40 
f 104/1/104 82/1/82 159/1/159 
f 156/1/156 104/1/104 159/1/159 
f 41/1/41 188/1/188 6/1/6 
f 188/1/188 192/1/192 6/1/6 
f 2/1/2 88/1/88 185/1/185 
f 2/1/2 90/1/90 88/1/88 
f 116/1/116 117/1/117 134/1/134 
f 167/1/167 117/1/117 132/1/132 
f 103/1/103 182/1/182 43/1/43 
f 43/1/43 183/1/183 103/1/103 
f 84/1/84 45/1/45 148/1/148 
f 45/1/45 69/1/69 148/1/148 
f 109/1/109 110/1/110 150/1/150 
f 110/1/110 102/1/102 150/1/150 
f 172/1/172 36/1/36 94/1/94 
f 152/1/152 193/1/193 94/1/94 
f 108/1/108 4/1/4 5/1/5 
f 193/1/193 152/1/152 108/1/108 
f 164/1/164 84/1/84 87/1/87 
f 164/1/164 45/1/45 84/1/84 
f 97/1/97 124/1/124 99/1/99 
f 124/1/124 173/1/173 60/1/60 
f 121/1/121 122/1/122 176/1/176 
f 31/1/31 14/1/14 122/1/122 
f 57/1/57 186/1/186 99/1/99 
f 99/1/99 176/1/176 57/1/57 
f 154/1/154 64/1/64 12/1/12 
f 154/1/154 86/1/86 64/1/64 
f 171/1/171 52/1/52 70/1/70 
f 70/1/70 38/1/38 171/1/171 
f 52/1/52 71/1/71 9/1/9 
f 52/1/52 9/1/9 168/1/168 
f 89/1/89 15/1/15 39/1/39 
f 178/1/178 39/1/39 177/1/177 
f 63/1/63 157/1/157 158/1/158 
f 63/1/63 158/1/158 21/1/21 
f 76/1/76 121/1/121 123/1/123 
f 176/1/176 123/1/123 121/1/121 
f 73/1/73 191/1/191 32/1/32 
f 13/1/13 32/1/32 191/1/191 
f 25/1/25 60/1/60 27/1/27 
f 60/1/60 173/1/173 27/1/27 
f 170/1/170 49/1/49 50/1/50 
f 185/1/185 49/1/49 170/1/170 
f 171/1/171 38/1/38 172/1/172 
f 172/1/172 38/1/38 36/1/36 
f 7/1/7 17/1/17 18/1/18 
f 167/1/167 7/1/7 18/1/18 
f 24/1/24 92/1/92 101/1/101 
f 149/1/149 24/1/24 101/1/101 
f 32/1/32 31/1/31 74/1/74 
f 31/1/31 120/1/120 74/1/74 
f 188/1/188 189/1/189 80/1/80 
f 136/1/136 80/1/80 189/1/189 
f 46/1/46 145/1/145 50/1/50 
f 175/1/175 50/1/50 145/1/145 
f 179/1/179 137/1/137 69/1/69 
f 67/1/67 69/1/69 137/1/137 
f 81/1/81 42/1/42 192/1/192 
f 130/1/130 192/1/192 42/1/42 
f 106/1/106 4/1/4 108/1/108 
f 72/1/72 41/1/41 4/1/4 
f 41/1/41 187/1/187 188/1/188 
f 41/1/41 33/1/33 187/1/187 
f 105/1/105 125/1/125 126/1/126 
f 105/1/105 190/1/190 191/1/191 
f 44/1/44 79/1/79 150/1/150 
f 79/1/79 44/1/44 81/1/81 
f 43/1/43 182/1/182 130/1/130 
f 92/1/92 130/1/130 182/1/182 
f 72/1/72 151/1/151 33/1/33 
f 151/1/151 181/1/181 33/1/33 
f 18/1/18 134/1/134 167/1/167 
f 134/1/134 117/1/117 167/1/167 
f 58/1/58 3/1/3 98/1/98 
f 2/1/2 3/1/3 90/1/90 
f 49/1/49 16/1/16 91/1/91 
f 91/1/91 16/1/16 17/1/17 
f 112/1/112 10/1/10 11/1/11 
f 61/1/61 10/1/10 112/1/112 
f 22/1/22 96/1/96 93/1/93 
f 94/1/94 93/1/93 96/1/96 
f 113/1/113 109/1/109 136/1/136 
f 113/1/113 136/1/136 35/1/35 
f 176/1/176 122/1/122 14/1/14 
f 14/1/14 57/1/57 176/1/176 
f 19/1/19 62/1/62 21/1/21 
f 19/1/19 82/1/82 62/1/62 
f 139/1/139 8/1/8 71/1/71 
f 8/1/8 139/1/139 17/1/17 
f 159/1/159 20/1/20 21/1/21 
f 20/1/20 159/1/159 82/1/82 
f 141/1/141 66/1/66 138/1/138 
f 141/1/141 23/1/23 66/1/66 
f 62/1/62 82/1/82 110/1/110 
f 102/1/102 110/1/110 82/1/82 
f 25/1/25 144/1/144 47/1/47 
f 25/1/25 47/1/47 164/1/164 
f 88/1/88 118/1/118 185/1/185 
f 116/1/116 185/1/185 118/1/118 
f 142/1/142 96/1/96 22/1/22 
f 142/1/142 22/1/22 23/1/23 
f 168/1/168 132/1/132 51/1/51 
f 168/1/168 51/1/51 52/1/52 
f 100/1/100 26/1/26 174/1/174 
f 26/1/26 27/1/27 174/1/174 
f 144/1/144 26/1/26 46/1/46 
f 46/1/46 47/1/47 144/1/144 
f 186/1/186 98/1/98 99/1/99 
f 98/1/98 186/1/186 58/1/58 
f 180/1/180 140/1/140 17/1/17 
f 140/1/140 180/1/180 179/1/179 
f 177/1/177 54/1/54 55/1/55 
f 40/1/40 54/1/54 177/1/177 
f 104/1/104 156/1/156 161/1/161 
f 157/1/157 161/1/161 156/1/156 
f 175/1/175 115/1/115 169/1/169 
f 169/1/169 50/1/50 175/1/175 
f 164/1/164 87/1/87 165/1/165 
f 86/1/86 165/1/165 87/1/87 
f 28/1/28 83/1/83 149/1/149 
f 149/1/149 83/1/83 84/1/84 
f 72/1/72 106/1/106 73/1/73 
f 72/1/72 4/1/4 106/1/106 
f 94/1/94 193/1/193 5/1/5 
f 108/1/108 5/1/5 193/1/193 
f 150/1/150 102/1/102 183/1/183 
f 102/1/102 103/1/103 183/1/183 
f 71/1/71 138/1/138 139/1/139 
f 138/1/138 71/1/71 141/1/141 
f 46/1/46 48/1/48 179/1/179 
f 179/1/179 48/1/48 140/1/140 
f 125/1/125 105/1/105 37/1/37 
f 128/1/128 125/1/125 37/1/37 
f 77/1/77 33/1/33 181/1/181 
f 77/1/77 181/1/181 147/1/147 
f 135/1/135 136/1/136 109/1/109 
f 109/1/109 150/1/150 135/1/135 
f 60/1/60 61/1/61 75/1/75 
f 75/1/75 124/1/124 60/1/60 
f 34/1/34 189/1/189 187/1/187 
f 189/1/189 34/1/34 136/1/136 
f 115/1/115 3/1/3 1/1/1 
f 1/1/1 169/1/169 115/1/115 
f 171/1/171 143/1/143 184/1/184 
f 141/1/141 184/1/184 143/1/143 
f 92/1/92 163/1/163 101/1/101 
f 182/1/182 163/1/163 92/1/92 
f 11/1/11 111/1/111 114/1/114 
f 109/1/109 114/1/114 111/1/111 
f 58/1/58 90/1/90 3/1/3 
f 90/1/90 58/1/58 15/1/15 
f 191/1/191 166/1/166 13/1/13 
f 40/1/40 13/1/13 166/1/166 
f 192/1/192 188/1/188 81/1/81 
f 81/1/81 188/1/188 80/1/80 
f 62/1/62 153/1/153 64/1/64 
f 64/1/64 153/1/153 12/1/12 
f 133/1/133 129/1/129 53/1/53 
f 70/1/70 53/1/53 129/1/129 
f 131/1/131 160/1/160 163/1/163 
f 104/1/104 160/1/160 131/1/131 
f 157/1/157 155/1/155 85/1/85 
f 86/1/86 85/1/85 155/1/155 
f 89/1/89 39/1/39 178/1/178 
f 178/1/178 119/1/119 89/1/89 
f 172/1/172 94/1/94 95/1/95 
f 143/1/143 172/1/172 95/1/95 
f 59/1/59 65/1/65 12/1/12 
f 65/1/65 59/1/59 60/1/60 
f 105/1/105 152/1/152 36/1/36 
f 152/1/152 94/1/94 36/1/36 
f 173/1/173 124/1/124 97/1/97 
f 174/1/174 173/1/173 97/1/97 
f 162/1/162 30/1/30 101/1/101 
f 161/1/161 30/1/30 162/1/162 
f 166/1/166 190/1/190 126/1/126 
f 126/1/126 190/1/190 105/1/105 
# 0 polygons - 382 triangles

